<svg width="97" height="105" viewBox="0 0 97 105" fill="none" xmlns="http://www.w3.org/2000/svg">
<path d="M61.1174 26.7134L49.3867 21.8594C49.3867 21.8594 55.0498 32.3765 56.6678 34.8036C58.2858 37.2306 64.3534 35.6126 63.1399 32.3765C61.9264 29.1405 61.1174 26.7134 61.1174 26.7134Z" fill="#D5233F"/>
<path fill-rule="evenodd" clip-rule="evenodd" d="M49.7932 70.0026C57.2743 65.1968 60.0149 61.9883 63.1419 55.4404V42.4962C57.5668 42.2431 56.8104 40.884 55.4786 38.4912V38.4912L55.4563 38.4512H44.1302C42.0125 41.1981 40.3553 42.207 36.04 42.4962V55.4404C39.7274 62.4655 42.6437 65.7292 49.7932 70.0026ZM44.4578 48.8782H44.7963C45.8703 48.8782 46.7409 48.0076 46.7409 46.9336V45.6556C46.7409 44.5816 47.6116 43.711 48.6855 43.711H50.4333C51.5073 43.711 52.3779 44.5816 52.3779 45.6556V46.4639C52.3779 47.5379 53.2486 48.4085 54.3225 48.4085H55.1308C56.2048 48.4085 57.0754 49.2791 57.0754 50.3531V51.6311C57.0754 52.7051 56.2048 53.5757 55.1308 53.5757H54.3225C53.2486 53.5757 52.3779 54.4464 52.3779 55.5203V56.3286C52.3779 57.4026 51.5073 58.2732 50.4333 58.2732H48.6855C47.6116 58.2732 46.7409 57.4026 46.7409 56.3286V55.5203C46.7409 54.4464 45.8703 53.5757 44.7963 53.5757H44.4578C43.3838 53.5757 42.5132 52.7051 42.5132 51.6311V50.8228C42.5132 49.7489 43.3838 48.8782 44.4578 48.8782Z" fill="#D5233F"/>
<path d="M2.87149 16.1958C-2.3874 14.9872 4.08511 -0.387943 7.32106 0.0156175C10.557 0.419178 43.3221 4.06068 43.3221 4.06068C45.5514 4.36499 46.7991 4.82496 48.9851 6.0832C48.9851 6.0832 70.0197 19.0226 74.0645 21.8589C78.1092 24.6953 72.8507 29.5494 70.0194 28.331C67.1882 27.1127 48.1761 19.4319 48.1761 19.4319L35.6365 19.8364L43.7266 32.3761C45.3443 35.617 40.8947 38.4485 38.468 36.8256C36.0413 35.2028 24.3103 25.095 24.3103 25.095C17.4836 25.983 14.7515 24.6691 12.9841 19.0274C12.9841 19.0274 8.13038 17.4045 2.87149 16.1958Z" fill="#D5233F"/>
<path d="M36.7049 77.7514L48.4355 82.6055C48.4355 82.6055 42.7725 72.0883 41.1544 69.6613C39.5364 67.2343 33.4688 68.8523 34.6824 72.0883C35.8959 75.3244 36.7049 77.7514 36.7049 77.7514Z" fill="#D5233F"/>
<path d="M94.9557 88.269C100.215 89.4777 93.742 104.853 90.5061 104.449C87.2701 104.046 54.5051 100.404 54.5051 100.404C52.2757 100.1 51.028 99.6399 48.842 98.3816C48.842 98.3816 27.8074 85.4423 23.7627 82.6059C19.7179 79.7695 24.9765 74.9155 27.8077 76.1338C30.6389 77.3522 49.651 85.033 49.651 85.033L62.1907 84.6284L54.1006 72.0888C52.4829 68.8479 56.9324 66.0163 59.3592 67.6392C61.7859 69.2621 73.5168 79.3699 73.5168 79.3699C80.3435 78.4818 83.0757 79.7957 84.843 85.4375C84.843 85.4375 89.6968 87.0603 94.9557 88.269Z" fill="#D5233F"/>
</svg>
